<svg xmlns="http://www.w3.org/2000/svg" viewBox="0 0 640 400">
  <rect width="640" height="400" fill="#12181F" />

  <!-- top nav -->
  <rect x="40" y="30" width="18" height="18" rx="6" fill="#2EE6A8" />
  <rect x="66" y="34" width="58" height="11" rx="5.5" fill="#F4F6F5" opacity="0.85" />
  <rect x="418" y="34" width="40" height="8" rx="4" fill="#F4F6F5" opacity="0.25" />
  <rect x="470" y="34" width="40" height="8" rx="4" fill="#F4F6F5" opacity="0.25" />
  <rect x="524" y="26" width="76" height="26" rx="13" fill="#2EE6A8" />

  <!-- hero copy -->
  <rect x="40" y="104" width="248" height="20" rx="10" fill="#F4F6F5" opacity="0.9" />
  <rect x="40" y="136" width="196" height="20" rx="10" fill="#2EE6A8" />
  <rect x="40" y="178" width="224" height="8" rx="4" fill="#F4F6F5" opacity="0.3" />
  <rect x="40" y="194" width="176" height="8" rx="4" fill="#F4F6F5" opacity="0.3" />

  <rect x="40" y="226" width="112" height="32" rx="16" fill="#F4F6F5" />
  <rect x="164" y="226" width="98" height="32" rx="16" fill="#F4F6F5" opacity="0.12" />

  <!-- listing cards -->
  <rect x="330" y="88" width="128" height="152" rx="14" fill="#F4F6F5" opacity="0.07" />
  <rect x="346" y="104" width="96" height="66" rx="10" fill="#2EE6A8" opacity="0.55" />
  <rect x="346" y="182" width="72" height="8" rx="4" fill="#F4F6F5" opacity="0.5" />
  <rect x="346" y="198" width="52" height="7" rx="3.5" fill="#F4F6F5" opacity="0.25" />
  <rect x="346" y="216" width="42" height="12" rx="6" fill="#2EE6A8" />

  <rect x="472" y="88" width="128" height="152" rx="14" fill="#F4F6F5" opacity="0.07" />
  <rect x="488" y="104" width="96" height="66" rx="10" fill="#2F8EF0" opacity="0.6" />
  <rect x="488" y="182" width="60" height="8" rx="4" fill="#F4F6F5" opacity="0.5" />
  <rect x="488" y="198" width="76" height="7" rx="3.5" fill="#F4F6F5" opacity="0.25" />
  <rect x="488" y="216" width="42" height="12" rx="6" fill="#2EE6A8" opacity="0.75" />

  <!-- lower strip -->
  <rect x="330" y="258" width="270" height="1.5" fill="#F4F6F5" opacity="0.12" />
  <rect x="330" y="276" width="86" height="8" rx="4" fill="#F4F6F5" opacity="0.28" />
  <rect x="430" y="276" width="64" height="8" rx="4" fill="#F4F6F5" opacity="0.18" />
  <rect x="508" y="276" width="92" height="8" rx="4" fill="#F4F6F5" opacity="0.18" />

  <!-- footer -->
  <rect x="0" y="322" width="640" height="78" fill="#0D1114" />
  <circle cx="60" cy="360" r="12" fill="#2EE6A8" />
  <rect x="82" y="355" width="72" height="9" rx="4.5" fill="#F4F6F5" opacity="0.4" />
  <rect x="470" y="356" width="60" height="8" rx="4" fill="#F4F6F5" opacity="0.2" />
  <rect x="544" y="356" width="56" height="8" rx="4" fill="#2EE6A8" opacity="0.7" />
</svg>
