<svg xmlns="http://www.w3.org/2000/svg" viewBox="0 0 640 400">
  <rect width="640" height="400" fill="#12181F" />
  <rect x="0" y="0" width="640" height="36" fill="#0a0a0a" />
  <circle cx="20" cy="18" r="5" fill="#2EE6A8" opacity="0.9" />
  <circle cx="38" cy="18" r="5" fill="#2F8EF0" opacity="0.8" />
  <circle cx="56" cy="18" r="5" fill="#F4F6F5" opacity="0.5" />

  <rect x="48" y="80" width="220" height="18" rx="4" fill="#F4F6F5" opacity="0.9" />
  <rect x="48" y="110" width="320" height="10" rx="4" fill="#F4F6F5" opacity="0.4" />
  <rect x="48" y="128" width="260" height="10" rx="4" fill="#F4F6F5" opacity="0.4" />
  <rect x="48" y="160" width="140" height="34" rx="17" fill="#2EE6A8" />

  <circle cx="520" cy="140" r="90" fill="#2F8EF0" opacity="0.18" />
  <circle cx="470" cy="180" r="60" fill="#2EE6A8" opacity="0.5" />
  <circle cx="540" cy="200" r="60" fill="#2EE6A8" opacity="0.3" />

  <rect x="48" y="250" width="150" height="100" rx="14" fill="#0a0a0a" />
  <rect x="212" y="250" width="150" height="100" rx="14" fill="#0a0a0a" />
  <rect x="376" y="250" width="150" height="100" rx="14" fill="#0a0a0a" />
  <circle cx="80" cy="282" r="10" fill="#2EE6A8" />
  <circle cx="244" cy="282" r="10" fill="#2F8EF0" />
  <circle cx="408" cy="282" r="10" fill="#2EE6A8" opacity="0.6" />
  <rect x="64" y="304" width="110" height="8" rx="4" fill="#F4F6F5" opacity="0.4" />
  <rect x="228" y="304" width="110" height="8" rx="4" fill="#F4F6F5" opacity="0.4" />
  <rect x="392" y="304" width="110" height="8" rx="4" fill="#F4F6F5" opacity="0.4" />
</svg>
