<svg xmlns="http://www.w3.org/2000/svg" viewBox="0 0 640 400">
  <rect width="640" height="400" fill="#12181F" />

  <!-- top bar -->
  <rect x="0" y="0" width="640" height="34" fill="#0a0a0a" />
  <circle cx="22" cy="17" r="7" fill="#2F8EF0" />
  <rect x="38" y="12" width="66" height="10" rx="5" fill="#F4F6F5" opacity="0.7" />
  <rect x="548" y="9" width="72" height="16" rx="8" fill="#2EE6A8" />

  <!-- hero art: controller-ish geometry -->
  <rect x="212" y="78" width="216" height="104" rx="52" fill="#2F8EF0" opacity="0.22" />
  <circle cx="266" cy="130" r="30" fill="#2EE6A8" />
  <circle cx="374" cy="130" r="30" fill="#2F8EF0" opacity="0.9" />
  <rect x="252" y="124" width="28" height="10" rx="5" fill="#0a0a0a" opacity="0.55" />
  <rect x="261" y="115" width="10" height="28" rx="5" fill="#0a0a0a" opacity="0.55" />
  <circle cx="366" cy="122" r="6" fill="#0a0a0a" opacity="0.5" />
  <circle cx="382" cy="138" r="6" fill="#0a0a0a" opacity="0.5" />

  <!-- headline blocks -->
  <rect x="212" y="206" width="216" height="14" rx="7" fill="#F4F6F5" opacity="0.85" />
  <rect x="248" y="230" width="144" height="9" rx="4.5" fill="#F4F6F5" opacity="0.35" />

  <!-- game cards -->
  <rect x="48" y="272" width="164" height="94" rx="14" fill="#0a0a0a" />
  <circle cx="80" cy="304" r="13" fill="#2EE6A8" />
  <rect x="66" y="330" width="128" height="8" rx="4" fill="#F4F6F5" opacity="0.4" />
  <rect x="66" y="344" width="84" height="7" rx="3.5" fill="#F4F6F5" opacity="0.2" />

  <rect x="238" y="272" width="164" height="94" rx="14" fill="#0a0a0a" />
  <circle cx="270" cy="304" r="13" fill="#2F8EF0" />
  <rect x="256" y="330" width="128" height="8" rx="4" fill="#F4F6F5" opacity="0.4" />
  <rect x="256" y="344" width="96" height="7" rx="3.5" fill="#F4F6F5" opacity="0.2" />

  <rect x="428" y="272" width="164" height="94" rx="14" fill="#0a0a0a" />
  <circle cx="460" cy="304" r="13" fill="#2EE6A8" opacity="0.55" />
  <rect x="446" y="330" width="128" height="8" rx="4" fill="#F4F6F5" opacity="0.4" />
  <rect x="446" y="344" width="72" height="7" rx="3.5" fill="#F4F6F5" opacity="0.2" />
</svg>
